<svg xmlns="http://www.w3.org/2000/svg" viewBox="0 0 3200 1600">
	<g>
		<path style="fill:#E9F3FE;"
			d="M303.437,1421.281c0,0-234.173-355.416,41.469-525.036c153.803-94.645,363.799,73.4,519.751-180.636   c90.757-147.834,408.357-192.706,567.177,9.125c158.818,201.832,295.349,200.814,404.932,163.479   c125.67-42.816,180.879-171.688,377.594-144.436c227.357,31.497,196.916,222.447,364.451,189.197   c323.078-64.121,562.443,302.208,339.117,490.829L303.437,1421.281z" />
		<g>
			<g>
				<path style="fill:#CA5F00;"
					d="M1297.888,1421.045H792.193c-15.854,0-28.826-12.973-28.826-28.828V380.946     c0-15.854,12.972-28.827,28.826-28.827h505.694c15.854,0,28.826,12.973,28.826,28.827v1011.271     C1326.714,1408.072,1313.742,1421.045,1297.888,1421.045z" />
				<path style="fill:#F1A34F;"
					d="M1352.494,1421.045H846.802c-15.854,0-28.827-12.973-28.827-28.828V380.946     c0-15.854,12.973-28.827,28.827-28.827h505.692c15.855,0,28.828,12.973,28.828,28.827v1011.271     C1381.322,1408.072,1368.35,1421.045,1352.494,1421.045z" />
				<g>
					<path style="opacity:0.4;fill:#CA5F00;"
						d="M1182.208,403.976h-146.443c-3.134,0-5.697-2.563-5.697-5.697l0,0      c0-3.134,2.563-5.698,5.697-5.698h146.443c3.133,0,5.696,2.564,5.696,5.698l0,0      C1187.904,401.412,1185.341,403.976,1182.208,403.976z" />
					<path style="opacity:0.4;fill:#CA5F00;"
						d="M1009.756,403.976L1009.756,403.976c-3.133,0-5.697-2.563-5.697-5.697l0,0      c0-3.134,2.564-5.698,5.697-5.698l0,0c3.135,0,5.698,2.564,5.698,5.698l0,0C1015.454,401.412,1012.891,403.976,1009.756,403.976      z" />
				</g>
				<path style="opacity:0.4;fill:#CA5F00;"
					d="M1069.877,1361.983c0-20.295,16.453-36.747,36.748-36.747     s36.747,16.452,36.747,36.747s-16.452,36.748-36.747,36.748S1069.877,1382.278,1069.877,1361.983z" />
			</g>
			<rect x="864.867" y="436.88" style="fill:#ADCBF9;" width="468.373" height="864.591" />
			<rect x="864.867" y="436.88" style="fill:#E9F3FE;" width="468.373" height="118.844" />
			<circle style="fill:#ADCBF9;" cx="926.461" cy="495.135" r="37.737" />
			<path style="fill:#ADCBF9;"
				d="M1216.502,467.242H997.128c-7.295,0-13.264,5.969-13.264,13.264l0,0    c0,7.296,5.969,13.266,13.264,13.266h219.374c7.295,0,13.264-5.97,13.264-13.266l0,0    C1229.766,473.211,1223.797,467.242,1216.502,467.242z" />
			<path style="fill:#ADCBF9;"
				d="M1123.152,509.78H991.165c-4.39,0-7.98,3.592-7.98,7.98c0,4.39,3.591,7.982,7.98,7.982h131.987    c4.39,0,7.98-3.592,7.98-7.982C1131.133,513.372,1127.542,509.78,1123.152,509.78z" />
			<path style="fill:#E9F3FE;"
				d="M1303.586,601.725v516.646c0,5.877-4.813,10.689-10.689,10.689H912.182    c-5.877,0-10.689-4.813-10.689-10.689V601.725c0-5.886,4.813-10.698,10.689-10.698h380.715    C1298.773,591.026,1303.586,595.839,1303.586,601.725z" />
			<g>
				<path style="fill:#EBF2F9;"
					d="M1104.596,1167.592c-30.624,0-55.447,24.824-55.447,55.446c0,30.623,24.823,55.447,55.447,55.447     c30.621,0,55.446-24.824,55.446-55.447C1160.042,1192.416,1135.217,1167.592,1104.596,1167.592z" />
				<path style="fill:#C65447;"
					d="M1095.221,1206.068c-0.595,0.396-1.172,0.792-1.738,1.187l-0.011-0.015     c-0.316,0.227-0.639,0.469-0.958,0.703c-0.323,0.23-0.652,0.461-0.969,0.691l0.012,0.015c-0.552,0.415-1.108,0.838-1.671,1.279     c-34.216,26.837-17.712,41.86-17.712,41.86s13.056-5.299,19.253-13.934c0,0-0.56-4.732-3.589-7.28c0,0-2.305-5.642,9.422-13.733     c0.049-0.034,2.176-1.573,2.223-1.609c11.352-8.609,15.99-4.656,15.99-4.656c1.475,3.675,5.794,5.685,5.794,5.685     c10.138-3.188,19.254-13.935,19.254-13.935S1131.408,1181.955,1095.221,1206.068z" />
			</g>
			<g>
				<path style="fill:#EBF2F9;"
					d="M976.516,1186.425c-20.221,0-36.613,16.393-36.613,36.613c0,20.222,16.393,36.613,36.613,36.613     c20.222,0,36.614-16.392,36.614-36.613C1013.13,1202.817,996.737,1186.425,976.516,1186.425z" />
				<path style="fill:#ADCBF9;"
					d="M990.748,1211.069h-5.165v-0.601c0-1.729-1.414-3.144-3.143-3.144h-12.193     c-1.729,0-3.143,1.415-3.143,3.144v0.601h-5.166c-4.086,0-7.428,3.343-7.428,7.428v11.413c0,4.085,3.342,7.428,7.428,7.428h28.81     c4.086,0,7.428-3.343,7.428-7.428v-11.413C998.176,1214.412,994.834,1211.069,990.748,1211.069z M981.884,1225.783     c-0.873,3.06-4.061,4.833-7.12,3.961c-3.061-0.872-4.834-4.06-3.961-7.12c0.872-3.06,4.06-4.833,7.12-3.962     C980.982,1219.535,982.756,1222.724,981.884,1225.783z" />
			</g>
			<g>
				<path style="fill:#EBF2F9;"
					d="M1228.562,1186.425c-20.221,0-36.613,16.393-36.613,36.613c0,20.222,16.393,36.613,36.613,36.613     c20.222,0,36.614-16.392,36.614-36.613C1265.176,1202.817,1248.783,1186.425,1228.562,1186.425z" />
				<path style="fill:#ADCBF9;"
					d="M1243.051,1211.069h-29.754c-3.909,0-7.107,3.198-7.107,7.108v11.256     c0,1.785,0.672,3.417,1.769,4.67l-1.769,8.086l10.193-5.648h26.668c3.908,0,7.107-3.198,7.107-7.107v-11.256     C1250.158,1214.268,1246.959,1211.069,1243.051,1211.069z" />
			</g>
			<g>
				<path style="fill:#FFB27D;"
					d="M1156.975,872.781l-0.05,9.176c0,0,2.499,28.697-32.837,32.888     c-35.337,4.202-62.132-1.846-61.174-23.99c3.183-17.146,6.701-38.266,6.938-52.453c0.088-5.272-0.273-10.866-1.256-17.183     l68.473-1.368l20.168,3.296L1156.975,872.781z" />
				<path style="fill:#E8945B;"
					d="M1157.236,823.146l-0.262,49.635c-7.273,3.382-15.48,5.446-24.681,5.446     c-31.47,0-51.812-23.077-62.442-39.826c0.088-5.272-0.273-10.866-1.256-17.183l68.473-1.368L1157.236,823.146z" />
				<path style="fill:#739AF0;"
					d="M1286.874,1121.136c-7.813-52.745-12.244-180.224-37.98-201.665     c-27.646-23.043-90.671-33.569-92.026-33.787c-0.01-0.01-0.019-0.01-0.019-0.01c0,0.756-0.108,1.574-0.318,2.438     c-2.256,9.243-16.312,23.625-36.033,24.917c-25.427,1.665-56.604-10.898-56.967-25.526v-0.009     c-0.009-0.091-0.009-0.164-0.009-0.255c0-0.146-6.095,1.146-9.889,1.874l-1.792,0.272c-20.25,3.994-61.415,13.392-78.937,26.637     c-17.258,13.046-53.3,123.685-57.63,213.037h67.683c1.792-8.906,5.749-22.279,11.017-38.317c0,0,0,0,0-0.01     c0.019-0.045,0.027-0.09,0.055-0.145l-0.136,1.582c-0.01,0.164-0.028,0.319-0.037,0.483c-0.027,0.29-0.046,0.581-0.064,0.872     c-0.109,1.401-0.219,2.803-0.318,4.213c-0.01,0.018-0.01,0.036-0.01,0.063c-0.127,1.71-0.245,3.43-0.364,5.167     c-0.235,3.512-0.454,7.077-0.654,10.689c-0.027,0.464-0.055,0.928-0.072,1.392c-0.256,4.585-0.482,9.261-0.691,14.01h215.329     h47.604h33.569C1287.739,1126.658,1287.302,1124.011,1286.874,1121.136z" />
				<path style="fill:#4A75CB;"
					d="M1048.538,1129.06h-56.857c0.209-4.749,0.436-9.425,0.691-14.01     c0.018-0.464,0.045-0.928,0.072-1.392c0.2-3.612,0.419-7.178,0.654-10.689c0.119-1.737,0.237-3.457,0.364-5.167     c0-0.027,0-0.046,0.01-0.063c0.1-1.41,0.209-2.811,0.318-4.213c0.018-0.29,0.036-0.582,0.064-0.872l0.118-1.911c0,0,0,0,0-0.01     l3.084-49.833c0,0,1.037,1.4,2.866,4.012c1.601,2.283,3.811,5.494,6.485,9.497     C1016.69,1069.855,1033.719,1097.165,1048.538,1129.06z" />
				<path style="fill:#FFB27D;"
					d="M1160.744,856.69c0,0-94.113,15.922-103.125-42.84c-9.014-58.762-27.23-96.281,32.477-108.932     c59.707-12.65,74.85,7.977,82.629,26.858C1180.503,750.658,1184.994,851.033,1160.744,856.69z" />
				<path style="fill:#2B478B;"
					d="M1059.133,822.842c0,0,9.753-3.055,6.233-16.585c-3.521-13.53-5.997-31.51,5.651-29.712     c11.648,1.797,13.447,10.674,17.316,4.808c3.869-5.866,0.893-27.905,33.953-34.059c33.06-6.153,48.189,3.551,62.718-5.4     c14.528-8.95,12.094-32.483,12.094-32.483s-3.241,8.974-9.519,12.556c0,0,20.912-38.891-12.336-58.951     c-33.247-20.06-61.52,0.02-78.672,3.469c-37.786,7.598-62.085,13.303-71.056,40.07     C1016.545,733.322,1031.334,802.135,1059.133,822.842z" />
				<path style="fill:#FFFFFF;"
					d="M1164.602,829.33c0,0-0.018,6.253-14.979,8.767c0,0-12.561,2.113-13.696-4.49     C1135.926,833.606,1146.854,826.18,1164.602,829.33z" />
			</g>
		</g>
		<path style="fill:#ACD29A;"
			d="M2440.573,1374.849c-51.29-81.019-116.303-5.588-130.841-69.844   c-14.538-64.257-501.559-186.381-559.711-180.793c-36.056,3.464-57.214,48.013-92.917,88.637   c-12.497-48.954-35.349-102.317-75.154-101.379c-46.804,1.103,4.271,76.567,46.028,129.557c-3.966,3.166-8.1,6.206-12.431,9.083   c-21.545-35.065-56.997-76.549-100.343-66.643c-50.731,11.596,25.254,48.732,78.633,78.777c-7.921,3.653-16.397,6.784-25.54,9.235   c-104.188,27.938-82.382,150.862-82.382,150.862l966.773,2.793C2452.689,1425.135,2454.835,1397.375,2440.573,1374.849z" />
		<g>
			<path style="fill:#4A75CB;"
				d="M2263.847,462.799h-453.332c-14.213,0-25.842,11.628-25.842,25.841v906.563    c0,14.214,11.629,25.843,25.842,25.843h453.332c14.214,0,25.843-11.629,25.843-25.843V488.64    C2289.689,474.427,2278.061,462.799,2263.847,462.799z" />
			<path style="fill:#699FF0;"
				d="M2214.894,462.799h-453.332c-14.213,0-25.842,11.628-25.842,25.841v906.563    c0,14.214,11.629,25.843,25.842,25.843h453.332c14.214,0,25.843-11.629,25.843-25.843V488.64    C2240.736,474.427,2229.107,462.799,2214.894,462.799z" />
			<rect x="1754.848" y="539.412" style="fill:#ADCBF9;" width="467.826" height="776.482" />
			<path style="fill:#4A75CB;"
				d="M2045.497,499.069h-131.28c-2.809,0-5.107,2.299-5.107,5.108c0,2.809,2.299,5.107,5.107,5.107    h131.28c2.81,0,5.107-2.299,5.107-5.107C2050.604,501.368,2048.307,499.069,2045.497,499.069z" />
			<path style="fill:#4A75CB;"
				d="M2068.813,499.069c-2.81,0-5.107,2.299-5.107,5.108c0,2.809,2.298,5.107,5.107,5.107    s5.107-2.299,5.107-5.107C2073.92,501.368,2071.622,499.069,2068.813,499.069z" />

			<ellipse transform="matrix(0.7071 -0.7071 0.7071 0.7071 -389.6958 1808.9606)" style="fill:#4A75CB;"
				cx="1988.761" cy="1374.885" rx="26.156" ry="26.156" />
			<g>
				<rect x="1814.501" y="585.909" style="fill:#EBF2F9;" width="347.454" height="576.698" />
				<path style="fill:#233862;"
					d="M2116.165,651.354c-16.649-10.189-43.239,1.988-43.239,1.988     c9.194-12.922,42.743-8.698,42.743-8.698c-66.779-14.208-80.754,28.448-81.922,32.497     c-48.471-43.743-126.076,49.51-126.076,49.51l111.36,147.61c0,0,10.158-23.483,23.576-16.153     c20.925,11.431,61.39-34.822,48.459-95.673c-1.395-6.563-3.061-12.577-4.92-18.088c4.343,1.898,9.264,3.426,13.866,3.426     c12.177,0,30.565-31.064,33.051-41.5C2135.549,695.836,2132.814,661.542,2116.165,651.354z" />
				<path style="fill:#FFB27D;"
					d="M2124.45,1162.607h-264.106c-1.356-10.576-1.92-21.597-1.135-33.633     c1.777-27.293,10.093-55.285,20.328-80.382c20.066-49.231,47.518-87.355,47.518-87.355s0.017,0,0.048-0.008     c0.024,0,0.063-0.009,0.103-0.009c0.04-0.008,0.088-0.008,0.144-0.016c0.04-0.008,0.079-0.008,0.127-0.016h0.032     c0.047-0.008,0.095-0.008,0.15-0.016c0.135-0.008,0.301-0.023,0.492-0.047c0.84-0.08,2.157-0.207,3.879-0.366     c0.024-0.008,0.048-0.008,0.072-0.008c0.008,0,0.016,0,0.016,0c1.039-0.103,2.221-0.206,3.53-0.325     c4.198-2.214,5.316-19.788,5.269-38.33c0-0.904-0.008-1.816-0.016-2.729c0-0.484-0.008-0.969-0.016-1.453     c-0.008-0.698-0.016-1.396-0.023-2.094c-0.016-0.699-0.024-1.389-0.04-2.087c-0.008-0.69-0.024-1.381-0.04-2.071     c-0.016-0.69-0.031-1.381-0.048-2.063c-0.016-0.627-0.032-1.246-0.048-1.865c-0.07-2.436-0.15-4.824-0.238-7.125     c-0.047-1.27-0.094-2.515-0.15-3.729c-0.008-0.088-0.008-0.175-0.008-0.262c-0.039-0.825-0.079-1.635-0.111-2.42     c-0.063-1.46-0.134-2.856-0.206-4.189c-0.008-0.262-0.023-0.531-0.04-0.785c-0.063-1.302-0.134-2.531-0.197-3.674     c-0.017-0.46-0.049-0.904-0.072-1.333v-0.008c-0.023-0.429-0.047-0.841-0.07-1.237c-0.024-0.398-0.048-0.785-0.072-1.151     c-0.023-0.31-0.04-0.602-0.056-0.88c-0.031-0.508-0.063-0.984-0.087-1.413c-0.016-0.206-0.023-0.395-0.039-0.587     c-0.032-0.508-0.063-0.952-0.088-1.316c0-0.08-0.008-0.151-0.016-0.215c-0.008-0.135-0.017-0.262-0.024-0.373     c-0.008-0.071-0.008-0.143-0.016-0.206c0-0.031,0-0.064-0.008-0.096c0-0.087-0.009-0.166-0.017-0.237     c-0.008-0.175-0.016-0.271-0.016-0.271l70.781-14.019l4.27-0.849l4.466-0.872v0.031c-0.016,4.688,0.08,9.243,0.278,13.639     c1.983,44.511,14.178,73.55,23.239,80.842c1.048,0.841,2.056,1.388,2.999,1.642c4.555,0.93,9.466,3.492,14.536,7.467     C2093.285,990.403,2133.813,1078.378,2124.45,1162.607z" />
				<path style="fill:#E8945B;"
					d="M1939.155,876.227c0,0,1.707,23.619,1.758,45.869c41.998-1.184,64.197-39.495,73.293-60.731     L1939.155,876.227z" />
				<path style="fill:#233862;"
					d="M2021.958,853.194c0,0,22.009-34.774,27.29-64.51c3.772-21.229-7.041-99.921-86.117-88.588     c0,0-22.967,2.264-44.555,16.844c-17.168,11.597-41.946,36.63-14.242,105.297l7.196,23.197L2021.958,853.194z" />
				<path style="fill:#FFB27D;"
					d="M1925.13,897.295c0,0,99.365,1.64,99.434-60.256c0.067-61.896,12.938-103.369-50.5-107.033     c-63.439-3.663-75.792,19.941-80.839,40.596C1888.176,791.256,1899.284,895.273,1925.13,897.295z" />
				<path style="fill:#FFB27D;"
					d="M2091.516,1162.607c-10.514-37.822-18.947-67.535-18.947-67.535l-7.339-31.816l-14.813-64.141     v-0.008l-10.234-44.328c0,0,0.706,0.07,2.007,0.222c3.269,0.372,10.267,1.23,19.05,2.626c16.154,2.57,38.33,6.958,54.326,13.519     c0.008,0,0.008,0.008,0.016,0.008c0.206,0.08,0.412,0.168,0.618,0.255c8.038,3.355,14.425,7.275,17.599,11.79     c0.016,0.008,0.024,0.023,0.032,0.032c0.483,0.69,0.896,1.396,1.222,2.118c9.147,20.121,18.296,53.865,26.904,92.307v84.951     H2091.516z" />
				<path style="fill:#233862;"
					d="M1997.766,811.842c41.753,10.737,59.864-0.449,59.864-0.449s-32.026-25.442-38.673-69.853     c0,0-19.557-42.553-81.354-21.866c-3.07,1.774-5.774,4.245-7.986,7.549c-6.51-5.582-18.105-9.621-33.438,8.964     c-23.035,27.921-2.538,77.276-2.538,77.276c9.457,1.104,11.686-31.343,16.639-47.104c3.645-11.599,15.602-23.432,21.668-28.879     c1.995,7.335,22.021,76.699,71.895,99.753c0,0-22.991-20.393-39.887-48.705C1973.631,799.514,1985.019,808.565,1997.766,811.842z     " />
				<path style="fill:#F1A34F;"
					d="M2135.32,985.444c-0.396-0.754-0.896-1.491-1.491-2.213c-0.009-0.009-0.017-0.024-0.032-0.032     c-1.135-1.381-2.61-2.697-4.388-3.967c0.159-0.191,0.246-0.294,0.246-0.294c-4.063-2.952-8.887-5.538-14.075-7.784     c-0.008,0-0.008-0.008-0.016-0.008c-23.51-10.195-54.318-13.566-54.318-13.566s0,0.016-0.008,0.047     c-0.079,0.35-0.627,2.754-1.515,6.482c-1.913,7.966-5.396,21.986-9.308,34.998v0.008c-4.078,13.608-8.608,26.119-12.273,29.468     c-8.942,8.196-138.667,21.612-141.65,6.704c-2.856-14.234,33.729-69.622,36.458-74.511c0.032-0.055-0.302-0.055-0.833-0.023     c0,0-0.008,0-0.016,0c-0.024,0-0.048,0-0.072,0.008c-1.047,0.056-2.761,0.238-3.879,0.366c-0.183,0.016-0.35,0.031-0.492,0.047     c-0.056,0.008-0.104,0.008-0.15,0.016h-0.032c-0.048,0.008-0.087,0.008-0.127,0.016c-0.056,0.008-0.104,0.008-0.144,0.016     c-0.039,0-0.078,0.009-0.103,0.009c-0.031,0.008-0.048,0.008-0.048,0.008c-14.789,1.944-25.223,3.428-32.752,4.713     c-14.734,2.523-18.407,4.284-22.073,7.102c-4.642,4.642-43.741,57.768-57.729,92.505v97.051h31.911h18.28h297.263v-101.709     C2153.331,1029.559,2144.326,1002.599,2135.32,985.444z" />
				<path style="fill:#FFFFFF;"
					d="M1944.702,860.553c0,0-1.717,7.294-19.863,6.169c0,0-15.235-0.941-14.769-8.958     C1910.07,857.764,1924.843,852.06,1944.702,860.553z" />
			</g>
			<g>
				<path style="fill:#EBF2F9;"
					d="M1978.736,1183.305c-30.622,0-55.446,24.824-55.446,55.447c0,30.622,24.824,55.446,55.446,55.446     c30.623,0,55.447-24.824,55.447-55.446C2034.184,1208.129,2009.359,1183.305,1978.736,1183.305z" />
				<path style="fill:#C65447;"
					d="M1969.362,1221.782c-0.595,0.396-1.172,0.791-1.738,1.186l-0.01-0.015     c-0.317,0.228-0.64,0.469-0.96,0.703c-0.322,0.23-0.652,0.462-0.967,0.691l0.011,0.015c-0.552,0.415-1.107,0.839-1.67,1.28     c-34.217,26.836-17.714,41.859-17.714,41.859s13.057-5.299,19.254-13.934c0,0-0.559-4.731-3.59-7.28     c0,0-2.305-5.642,9.423-13.733c0.049-0.033,2.175-1.572,2.223-1.607c11.352-8.611,15.99-4.658,15.99-4.658     c1.474,3.674,5.794,5.686,5.794,5.686c10.139-3.188,19.254-13.935,19.254-13.935S2005.549,1197.668,1969.362,1221.782z" />
			</g>
			<g>
				<path style="fill:#EBF2F9;"
					d="M1850.658,1202.138c-20.222,0-36.614,16.393-36.614,36.614c0,20.221,16.393,36.613,36.614,36.613     c20.221,0,36.613-16.393,36.613-36.613C1887.271,1218.53,1870.879,1202.138,1850.658,1202.138z" />
				<path style="fill:#ADCBF9;"
					d="M1864.891,1226.783h-5.166v-0.602c0-1.729-1.414-3.144-3.144-3.144h-12.192     c-1.729,0-3.145,1.415-3.145,3.144v0.602h-5.165c-4.085,0-7.428,3.342-7.428,7.427v11.413c0,4.086,3.343,7.428,7.428,7.428     h28.812c4.084,0,7.428-3.342,7.428-7.428v-11.413C1872.318,1230.125,1868.975,1226.783,1864.891,1226.783z M1856.025,1241.496     c-0.872,3.061-4.061,4.834-7.121,3.962c-3.059-0.873-4.832-4.062-3.961-7.12c0.873-3.061,4.061-4.834,7.121-3.962     C1855.124,1235.248,1856.897,1238.436,1856.025,1241.496z" />
			</g>
			<g>
				<path style="fill:#EBF2F9;"
					d="M2102.704,1202.138c-20.222,0-36.614,16.393-36.614,36.614c0,20.221,16.393,36.613,36.614,36.613     c20.221,0,36.613-16.393,36.613-36.613C2139.317,1218.53,2122.925,1202.138,2102.704,1202.138z" />
				<path style="fill:#ADCBF9;"
					d="M2117.192,1226.783h-29.754c-3.909,0-7.108,3.198-7.108,7.107v11.256     c0,1.785,0.672,3.418,1.77,4.67l-1.77,8.087l10.194-5.648h26.668c3.909,0,7.107-3.198,7.107-7.108v-11.256     C2124.3,1229.981,2121.102,1226.783,2117.192,1226.783z" />
			</g>
			<path style="fill:#ADCBF9;"
				d="M1907.671,605.986v96.482c0,1.097-0.898,1.995-1.996,1.995h-71.097    c-1.098,0-1.996-0.898-1.996-1.995v-96.482c0-1.099,0.898-1.997,1.996-1.997h71.097    C1906.772,603.989,1907.671,604.888,1907.671,605.986z" />
			<g>
				<path style="fill:#FFB27D;"
					d="M1880.292,656.606l-0.009,1.713c0,0,0.467,5.359-6.133,6.142     c-6.599,0.784-11.603-0.346-11.424-4.48c0.595-3.202,1.252-7.147,1.296-9.795c0.016-0.984-0.052-2.029-0.235-3.209l12.788-0.256     l3.766,0.615L1880.292,656.606z" />
				<path style="fill:#739AF0;"
					d="M1904.551,702.984c-1.459-9.85-2.287-33.656-7.093-37.66c-5.163-4.303-16.933-6.268-17.187-6.31     c-0.001-0.001-0.003-0.001-0.003-0.001c0,0.141-0.021,0.293-0.06,0.455c-0.422,1.725-3.046,4.412-6.729,4.653     c-4.747,0.311-10.57-2.036-10.638-4.768v-0.001c-0.002-0.018-0.002-0.031-0.002-0.048c0-0.027-1.139,0.214-1.846,0.35     l-0.336,0.051c-3.781,0.745-11.469,2.501-14.74,4.975c-3.223,2.436-9.954,23.098-10.763,39.783h12.64     c0.335-1.662,1.074-4.16,2.058-7.154c0,0,0,0,0-0.003c0.003-0.008,0.005-0.017,0.01-0.027l-0.024,0.296     c-0.003,0.031-0.006,0.06-0.008,0.091c-0.005,0.055-0.008,0.108-0.012,0.162c-0.02,0.263-0.041,0.523-0.06,0.787     c-0.002,0.004-0.002,0.007-0.002,0.012c-0.023,0.32-0.046,0.641-0.067,0.965c-0.044,0.656-0.085,1.322-0.122,1.996     c-0.006,0.087-0.011,0.173-0.015,0.261c-0.047,0.857-0.09,1.73-0.129,2.615h40.212h8.891h6.269     C1904.712,704.016,1904.631,703.521,1904.551,702.984z" />
				<path style="fill:#E8945B;"
					d="M1880.341,647.336l-0.049,9.27c-1.358,0.632-2.891,1.017-4.609,1.017     c-5.876,0-9.675-4.31-11.66-7.437c0.016-0.984-0.052-2.029-0.235-3.209l12.788-0.256L1880.341,647.336z" />
				<path style="fill:#4A75CB;"
					d="M1860.042,704.464h-10.618c0.039-0.886,0.082-1.759,0.129-2.615     c0.004-0.087,0.009-0.174,0.015-0.261c0.037-0.674,0.078-1.34,0.122-1.996c0.021-0.324,0.044-0.644,0.067-0.965     c0-0.005,0-0.008,0.002-0.012c0.019-0.264,0.04-0.524,0.06-0.787c0.004-0.054,0.007-0.107,0.012-0.162l0.022-0.356     c0,0,0,0,0-0.003l0.575-9.306c0,0,0.194,0.262,0.535,0.749c0.3,0.427,0.712,1.026,1.212,1.773     C1854.095,693.408,1857.274,698.508,1860.042,704.464z" />
				<path style="fill:#FFB27D;"
					d="M1880.996,653.6c0,0-17.575,2.974-19.259-8c-1.683-10.973-5.085-17.979,6.065-20.342     s13.978,1.489,15.43,5.016C1884.686,633.8,1885.524,652.544,1880.996,653.6z" />
				<path style="fill:#2B478B;"
					d="M1862.021,647.279c0,0,1.821-0.57,1.164-3.098c-0.657-2.526-1.12-5.883,1.056-5.548     c2.176,0.336,2.512,1.993,3.233,0.898c0.724-1.096,0.167-5.211,6.341-6.36s8.999,0.663,11.712-1.009     c2.714-1.672,2.259-6.065,2.259-6.065s-0.605,1.675-1.777,2.344c0,0,3.904-7.263-2.304-11.008     c-6.209-3.747-11.488,0.003-14.691,0.647c-7.058,1.418-11.595,2.484-13.27,7.482     C1854.067,630.562,1856.829,643.412,1862.021,647.279z" />
				<path style="fill:#FFFFFF;"
					d="M1881.717,648.49c0,0-0.004,1.168-2.798,1.638c0,0-2.346,0.395-2.558-0.838     C1876.361,649.29,1878.402,647.903,1881.717,648.49z" />
			</g>
		</g>
		<g>
			<path style="fill:#163560;"
				d="M2766.8,1420.144c0,0,46.594,3.994,48.583-4.84c0.264-1.175,6.815-45.29,6.815-45.29l8.038-56.364    c0,0-13.625-1.647-18.938,14.388c-5.313,16.036-20.975,41.871-44.213,48.611C2742.64,1383.74,2766.8,1420.144,2766.8,1420.144z" />
			<path style="fill:#E49963;"
				d="M2545.494,1192.16l4.151,1.475c0,0,10.872-18.389,33.091-10.953c0,0,8.875,3.715,3.61,8.571    c-5.264,4.858-3.962,2.343-11.231,9.331c-7.268,6.988-17.192,10.492-24.028,8.134l-7.58-2.669L2545.494,1192.16z" />
			<path style="fill:#163560;"
				d="M2358.266,1346.142c0,0,154.91-118.366,198.979-119.659s187.018,194.36,187.018,194.36h-53.529    c0,0-94.321-50.197-127.502-97.901c-3.338-4.799-10.476-4.581-13.575,0.373c-17.15,27.41-61.997,94.636-90.992,97.528    C2427.533,1423.949,2358.266,1346.142,2358.266,1346.142z" />
			<path style="fill:#FFB27D;"
				d="M2373.095,1024.057c0,0-0.978,7.757-2.236,17.33c-1.677,12.439-3.912,27.882-5.38,32.704    l-46.61,11.81l-3.425-33.892c0,0,11.672-23.409,11.602-56.533L2373.095,1024.057z" />
			<g>
				<path style="fill:#E78B37;"
					d="M2332.557,1094.601l66.23,81.129l23.16,28.37c0,0,41.482,7.769,63.258,9.661     c15.716,1.358,65.882-5.043,65.882-5.043l-1.441-15.083c0,0-31.132-13.24-45.921-16.344     c-15.088-3.16-53.203-11.763-53.203-11.763c-14.412-5.241-69.176-76.036-69.176-76.036L2332.557,1094.601z" />
			</g>
			<path style="fill:#F1A34F;"
				d="M2289.346,1384.303l135.448-11.054c0,0,0.375-2.715,1.001-7.272    c0.195-1.408,0.305-2.883,0.344-4.421c0.31-13.529-5.011-31.771-7.298-49.702c-1.514-11.836-1.707-23.536,1.913-33.658    c4.169-11.675,6.089-33.84,6.936-54.912c1.066-26.387,0.453-51.047,0.465-51.222c1.358-16.807-2.637-35.469-9.334-53.212    c-13.213-34.99-37.849-54.801-49.424-66.549c0,0-14.137,3.49-50.882-7.533c-1.091-0.328-4.243,4.296-5.646,6.991    c0,0-15.902,20.122-22.438,69.191C2284.581,1164.873,2289.346,1384.303,2289.346,1384.303z" />
			<path style="fill:#E78B37;"
				d="M2323.236,1141.086c0.266,6.16,54.766,179.646,48.089,192.444    c-32.32,61.913,49.153,34.019,53.574,18.053c-1.513-11.836-7.766-63.266-4.146-73.388c4.169-11.675,6.089-33.84,6.936-54.912    c-1.363-7.687-4.557-15.624-8.869-23.297C2398.568,1196.818,2321.207,1093.322,2323.236,1141.086z" />
			<g>
				<path style="fill:#373480;"
					d="M2594.135,1174.92l-16.799-11.536c-0.143-0.099-0.294-0.174-0.45-0.226l-0.013-0.01l-3.169-1.293     l-15.457,48.811l13.52,10.943l2.429,1.057c0.002,0.001,0.004,0.002,0.006,0.004l0.033,0.014l0.002-0.005     c1.098,0.446,2.494-0.26,3.079-1.692l17.498-42.882C2595.314,1176.877,2595.028,1175.533,2594.135,1174.92z" />
				<path style="fill:#575B9F;"
					d="M2554.795,1207.777l16.031,13.42c1.13,0.945,2.891,0.253,3.566-1.403l17.498-42.882     c0.502-1.228,0.216-2.571-0.678-3.185l-16.799-11.537c-1.146-0.786-2.783-0.063-3.427,1.511l-16.729,40.998     C2553.787,1205.853,2554.009,1207.118,2554.795,1207.777z" />
				<polygon style="fill:#E2E7F2;"
					points="2557.399,1202.521 2573.188,1215.737 2589.057,1176.848 2572.512,1165.485    " />
				<path style="fill:#373480;"
					d="M2563.626,1211.464c0.22-0.781-0.093-1.614-0.698-1.862c-0.605-0.247-1.273,0.187-1.493,0.968     s0.093,1.615,0.698,1.862C2562.737,1212.678,2563.406,1212.245,2563.626,1211.464z" />
				<polygon style="fill:#CED4EA;"
					points="2586.662,1177.571 2573.229,1168.091 2559.298,1201.488 2572.979,1212.154    " />
				<polygon style="fill:#BCC5DD;"
					points="2583.148,1179.582 2573.736,1172.94 2563.978,1196.338 2573.563,1203.811    " />
			</g>
			<path style="fill:#E49963;"
				d="M2547.445,1215.817l8.52-0.28c0,0,8.492-17.606,27.928-9.258c0,0,7.797,4.068,3.498,8.609    c-4.299,4.54-3.297,2.124-9.219,8.67c-5.923,6.546-14.289,9.539-20.271,6.9l-6.637-2.979L2547.445,1215.817z" />
			<path style="fill:#F1A34F;"
				d="M2335.826,1052.6c0,0,33.254,14.043,50.523,44.051c11.508,19.997,31.327,54.016,43.27,74.486    c6.359,10.9,16.985,18.643,29.311,21.354l40.354,8.879l56.681,14.168c0,0,1.342,2.401,1.015,6.332    c-0.465,5.575-4.113,6.696-4.113,6.696s-52.919,12.737-71.757,14.154c-46.414,3.489-68.414-2.595-75.232-5.102    c-1.522-0.56-2.885-1.371-4.143-2.394c-7.107-5.776-34.38-28.625-48.736-50.452c-13.969-21.237-52.484-76.422-52.484-76.422    L2335.826,1052.6z" />
			<path style="fill:#1C468A;"
				d="M2289.346,1331.86c0,0-14.285,88.982,26.672,88.982c40.955,0,450.782,0,450.782,0    s12.448-8.406,13.322-24.42c0.926-16.985-4.44-23.003-4.44-23.003s-161.371-5.616-194.135-16.596    C2417.329,1301.794,2289.346,1331.86,2289.346,1331.86z" />
			<path style="fill:#E8945B;"
				d="M2373.095,1024.057c0,0-0.978,7.757-2.236,17.33c-43.063-12.561-43.813-45.911-43.813-45.911    L2373.095,1024.057z" />
			<path style="fill:#FFB27D;"
				d="M2379.87,1026.541c0,0-52.344,1.551-52.808-31.062c-0.464-32.61-7.533-54.375,25.868-56.743    c33.4-2.37,40.071,9.981,42.874,20.829S2393.475,1025.297,2379.87,1026.541z" />
			<path style="fill:#2B478B;"
				d="M2326.128,1008.253c0,0,5.53-0.924,4.639-8.542c-0.892-7.618-0.881-17.575,5.313-15.72    c6.193,1.855,6.501,6.815,9.047,3.919c2.545-2.897,2.591-15.096,21.02-15.946c18.43-0.849,25.919,5.565,34.489,1.798    c8.57-3.768,9.022-16.74,9.022-16.74s-2.438,4.633-6.119,6.106c0,0,14.299-19.556-2.256-32.965    c-16.554-13.41-33.432-4.632-43.013-4.051c-21.106,1.277-34.741,2.543-41.636,16.413    C2309.739,956.394,2312.584,994.903,2326.128,1008.253z" />
			<path style="fill:#FFFFFF;"
				d="M2387.752,1010.317c0,0-0.01,3.431-8.218,4.81c0,0-6.891,1.159-7.514-2.464    C2372.021,1012.663,2378.017,1008.589,2387.752,1010.317z" />
		</g>
		<g>
			<path style="fill:#F1A34F;"
				d="M2685.42,865.627h-139.234c-18.294,0-33.262,14.968-33.262,33.262v52.675    c0,8.359,3.133,16.018,8.271,21.877l-8.271,37.813l47.703-26.43h124.793c18.293,0,33.262-14.967,33.262-33.261v-52.675    C2718.682,880.595,2703.713,865.627,2685.42,865.627z" />
			<g>
				<path style="fill:#E58638;"
					d="M2543.693,905.761h144.349c2.972,0,5.401-2.431,5.401-5.402c0-2.971-2.43-5.402-5.401-5.402     h-144.349c-2.971,0-5.401,2.432-5.401,5.402C2538.292,903.33,2540.723,905.761,2543.693,905.761z" />
				<path style="fill:#E58638;"
					d="M2688.042,918.599h-144.349c-2.971,0-5.401,2.431-5.401,5.402c0,2.971,2.431,5.402,5.401,5.402     h144.349c2.972,0,5.401-2.432,5.401-5.402C2693.443,921.029,2691.014,918.599,2688.042,918.599z" />
				<path style="fill:#E58638;"
					d="M2688.042,941.354h-144.349c-2.971,0-5.401,2.432-5.401,5.402c0,2.972,2.431,5.402,5.401,5.402     h144.349c2.972,0,5.401-2.431,5.401-5.402C2693.443,943.785,2691.014,941.354,2688.042,941.354z" />
			</g>
		</g>
		<g>
			<rect x="918.586" y="610.938" style="fill:#ADCBF9;" width="73.096" height="121.32" />
			<g>
				<path style="fill:#233862;"
					d="M982.049,624.705c-3.504-2.145-9.098,0.418-9.098,0.418c1.935-2.719,8.992-1.829,8.992-1.829     c-14.094-2.999-17.005,6.036-17.234,6.837c-10.196-9.202-26.521,10.414-26.521,10.414l23.427,31.054c0,0,2.137-4.94,4.959-3.398     c4.402,2.404,12.915-7.326,10.194-20.127c-0.294-1.384-0.647-2.646-1.039-3.808c0.914,0.4,1.951,0.724,2.922,0.724     c2.562,0,6.43-6.535,6.953-8.732C986.126,634.063,985.551,626.849,982.049,624.705z" />
				<path style="fill:#FFB27D;"
					d="M983.791,732.258h-55.56c-0.286-2.225-0.405-4.543-0.239-7.075     c0.373-5.742,2.123-11.63,4.276-16.91c4.222-10.357,9.996-18.377,9.996-18.377s0.003,0,0.011-0.002     c0.004,0,0.013-0.001,0.021-0.001c0.008-0.002,0.018-0.002,0.029-0.004c0.008-0.001,0.018-0.001,0.027-0.003h0.006     c0.011-0.001,0.021-0.001,0.032-0.004c0.028-0.001,0.063-0.005,0.104-0.01c0.177-0.017,0.454-0.043,0.815-0.077     c0.006-0.001,0.012-0.001,0.016-0.001c0.002,0,0.004,0,0.004,0c0.219-0.022,0.467-0.044,0.742-0.069     c0.883-0.465,1.118-4.162,1.109-8.063c0-0.19-0.003-0.383-0.004-0.574c0-0.102-0.002-0.203-0.004-0.306     c-0.002-0.147-0.004-0.294-0.005-0.44c-0.003-0.148-0.005-0.293-0.008-0.44c-0.002-0.144-0.005-0.29-0.009-0.435     c-0.003-0.144-0.007-0.29-0.01-0.434c-0.004-0.132-0.007-0.263-0.01-0.393c-0.016-0.513-0.032-1.015-0.051-1.498     c-0.01-0.268-0.019-0.53-0.032-0.785c-0.001-0.018-0.001-0.037-0.001-0.055c-0.008-0.175-0.017-0.345-0.023-0.51     c-0.013-0.307-0.028-0.601-0.043-0.881c-0.002-0.056-0.006-0.112-0.009-0.165c-0.013-0.274-0.028-0.533-0.042-0.773     c-0.003-0.097-0.01-0.19-0.015-0.28v-0.001c-0.005-0.091-0.01-0.178-0.016-0.261c-0.005-0.084-0.009-0.166-0.014-0.242     c-0.006-0.065-0.01-0.127-0.013-0.186c-0.006-0.107-0.013-0.207-0.018-0.297c-0.004-0.044-0.006-0.084-0.009-0.124     c-0.007-0.106-0.014-0.2-0.018-0.276c0-0.017-0.002-0.031-0.004-0.046c-0.001-0.028-0.003-0.055-0.004-0.078     c-0.002-0.016-0.002-0.029-0.004-0.044c0-0.006,0-0.013-0.001-0.02c0-0.018-0.002-0.035-0.003-0.051     c-0.003-0.035-0.004-0.056-0.004-0.056l14.89-2.949l0.898-0.179l0.94-0.184v0.007c-0.004,0.985,0.017,1.944,0.059,2.868     c0.417,9.364,2.983,15.474,4.89,17.008c0.22,0.177,0.432,0.292,0.63,0.346c0.959,0.195,1.991,0.734,3.058,1.57     C977.234,696.031,985.761,714.539,983.791,732.258z" />
				<path style="fill:#E8945B;"
					d="M944.81,672.012c0,0,0.359,4.969,0.369,9.649c8.836-0.249,13.506-8.308,15.419-12.776     L944.81,672.012z" />
				<path style="fill:#233862;"
					d="M962.229,667.166c0,0,4.63-7.315,5.741-13.57c0.793-4.466-1.481-21.021-18.116-18.637     c0,0-4.832,0.477-9.373,3.543c-3.612,2.44-8.825,7.707-2.996,22.152l1.513,4.88L962.229,667.166z" />
				<path style="fill:#FFB27D;"
					d="M941.859,676.443c0,0,20.904,0.346,20.919-12.676c0.014-13.021,2.722-21.746-10.624-22.516     c-13.347-0.771-15.945,4.194-17.007,8.539C934.086,654.136,936.423,676.019,941.859,676.443z" />
				<path style="fill:#FFB27D;"
					d="M976.862,732.258c-2.212-7.956-3.985-14.208-3.985-14.208l-1.544-6.692l-3.116-13.493v-0.002     l-2.153-9.325c0,0,0.148,0.015,0.423,0.047c0.688,0.078,2.159,0.258,4.007,0.552c3.398,0.541,8.063,1.464,11.429,2.845     c0.002,0,0.002,0.002,0.003,0.002c0.044,0.016,0.087,0.035,0.13,0.054c1.691,0.705,3.035,1.529,3.703,2.48     c0.003,0.002,0.005,0.005,0.005,0.005c0.102,0.146,0.19,0.296,0.259,0.447c1.924,4.233,3.849,11.332,5.66,19.419v17.871H976.862z     " />
				<path style="fill:#233862;"
					d="M957.141,658.467c8.783,2.259,12.594-0.095,12.594-0.095s-6.737-5.352-8.136-14.694     c0,0-6.464-10.121-17.124-4.586c-0.64,0.373-1.201,0.893-1.663,1.581c-1.368-1.178-3.81-2.039-7.043,1.879     c-4.845,5.873-0.533,16.256-0.533,16.256c1.989,0.233,2.458-6.594,3.501-9.909c0.767-2.441,3.282-4.93,4.558-6.075     c0.409,1.508,4.618,16.128,15.125,20.986c0,0-4.839-4.294-8.393-10.252C952.062,655.87,954.458,657.776,957.141,658.467z" />
				<path style="fill:#F1A34F;"
					d="M986.078,694.988c-0.084-0.158-0.189-0.314-0.314-0.467c0,0-0.003-0.004-0.006-0.006     c-0.239-0.291-0.55-0.567-0.924-0.834c0.033-0.041,0.052-0.063,0.052-0.063c-0.854-0.621-1.868-1.164-2.961-1.637     c-0.001,0-0.001-0.002-0.003-0.002c-4.945-2.145-11.427-2.854-11.427-2.854s0,0.003-0.002,0.009     c-0.017,0.073-0.132,0.58-0.319,1.364c-0.402,1.676-1.135,4.625-1.957,7.362v0.002c-0.858,2.862-1.812,5.494-2.582,6.199     c-1.882,1.724-29.172,4.546-29.8,1.41c-0.601-2.994,7.097-14.647,7.67-15.675c0.007-0.012-0.063-0.012-0.175-0.005     c0,0-0.002,0-0.004,0c-0.004,0-0.01,0-0.016,0.001c-0.22,0.012-0.58,0.051-0.815,0.077c-0.039,0.003-0.073,0.007-0.103,0.01     c-0.013,0.003-0.022,0.003-0.033,0.004h-0.006c-0.01,0.002-0.02,0.002-0.027,0.003c-0.012,0.002-0.021,0.002-0.029,0.004     c-0.009,0-0.018,0.001-0.021,0.001c-0.008,0.002-0.011,0.002-0.011,0.002c-3.111,0.409-5.306,0.721-6.89,0.992     c-3.1,0.53-13.846,13.646-16.789,20.954v20.416h6.714h3.846h62.536v-21.396C989.867,704.269,987.972,698.597,986.078,694.988z" />
				<path style="fill:#FFFFFF;"
					d="M945.977,668.714c0,0-0.362,1.534-4.179,1.299c0,0-3.205-0.198-3.106-1.885     C938.692,668.128,941.799,666.928,945.977,668.714z" />
			</g>
		</g>
		<g>
			<path style="fill:#699FF0;"
				d="M1631.123,642.013c-1.918,0-3.817-0.007-5.698-0.019c-2.151-0.015-3.884-1.772-3.869-3.923    c0.015-2.143,1.756-3.869,3.896-3.869c0.009,0,0.019,0,0.027,0c3.388,0.022,6.836,0.025,10.345,0.007c0.007,0,0.015,0,0.022,0    c2.141,0,3.883,1.729,3.895,3.875c0.012,2.151-1.723,3.904-3.875,3.917C1634.271,642.008,1632.691,642.013,1631.123,642.013z     M1646.243,641.886c-2.122,0-3.859-1.703-3.894-3.833c-0.035-2.151,1.68-3.923,3.832-3.959c3.403-0.056,6.858-0.129,10.359-0.221    c2.186-0.063,3.941,1.643,3.996,3.794c0.057,2.151-1.642,3.94-3.793,3.995c-3.527,0.093-7.008,0.167-10.436,0.223    C1646.287,641.885,1646.265,641.886,1646.243,641.886z M1615.063,641.849c-0.028,0-0.057,0-0.085,0    c-3.553-0.076-7.068-0.179-10.449-0.307c-2.15-0.081-3.828-1.891-3.746-4.04c0.08-2.15,1.902-3.804,4.039-3.746    c3.339,0.125,6.812,0.227,10.322,0.302c2.15,0.046,3.857,1.827,3.813,3.978C1618.912,640.158,1617.177,641.849,1615.063,641.849z     M1667.036,641.349c-2.089,0-3.819-1.656-3.892-3.761c-0.074-2.15,1.608-3.954,3.759-4.028c3.413-0.119,6.868-0.253,10.361-0.401    c2.119-0.097,3.968,1.578,4.058,3.727c0.092,2.15-1.577,3.967-3.727,4.058c-3.514,0.149-6.988,0.284-10.422,0.403    C1667.127,641.349,1667.081,641.349,1667.036,641.349z M1594.3,641.053c-0.075,0-0.151-0.001-0.228-0.006    c-3.591-0.206-7.109-0.45-10.458-0.722c-2.145-0.175-3.741-2.056-3.567-4.2c0.175-2.144,2.056-3.736,4.2-3.567    c3.286,0.269,6.743,0.507,10.273,0.71c2.147,0.124,3.789,1.965,3.665,4.113C1598.066,639.453,1596.349,641.053,1594.3,641.053z     M1687.815,640.469c-2.063,0-3.785-1.62-3.888-3.703c-0.106-2.15,1.549-3.979,3.698-4.084c3.419-0.17,6.872-0.352,10.359-0.549    c2.152-0.127,3.988,1.523,4.108,3.671c0.121,2.148-1.522,3.988-3.671,4.108c-3.505,0.197-6.976,0.382-10.411,0.552    C1687.946,640.467,1687.881,640.469,1687.815,640.469z M1573.592,639.346c-0.144,0-0.289-0.008-0.436-0.023    c-3.629-0.405-7.146-0.862-10.451-1.359c-2.128-0.32-3.594-2.305-3.273-4.432c0.32-2.128,2.301-3.597,4.433-3.273    c3.208,0.482,6.625,0.927,10.154,1.319c2.14,0.238,3.68,2.165,3.44,4.304C1577.237,637.873,1575.551,639.346,1573.592,639.346z     M1708.581,639.305c-2.041,0-3.756-1.589-3.884-3.654c-0.134-2.147,1.499-3.997,3.646-4.13c3.423-0.213,6.876-0.438,10.355-0.673    c2.166-0.147,4.006,1.477,4.15,3.624c0.146,2.147-1.477,4.005-3.624,4.15c-3.495,0.235-6.961,0.461-10.397,0.675    C1708.744,639.303,1708.662,639.305,1708.581,639.305z M1729.33,637.901c-2.023,0-3.732-1.563-3.882-3.612    c-0.156-2.147,1.457-4.013,3.604-4.169c3.425-0.25,6.876-0.509,10.35-0.778c2.163-0.168,4.02,1.438,4.187,3.583    c0.166,2.146-1.438,4.019-3.583,4.186c-3.487,0.271-6.95,0.53-10.388,0.782C1729.521,637.898,1729.426,637.901,1729.33,637.901z     M1750.064,636.294c-2.008,0-3.712-1.541-3.879-3.577c-0.176-2.144,1.419-4.026,3.563-4.202c3.429-0.28,6.877-0.571,10.346-0.87    c2.127-0.188,4.031,1.403,4.216,3.548c0.185,2.143-1.403,4.031-3.547,4.216c-3.48,0.3-6.939,0.59-10.377,0.873    C1750.278,636.29,1750.17,636.294,1750.064,636.294z M1553.057,636.21c-0.258,0-0.521-0.025-0.783-0.079    c-3.702-0.754-7.195-1.595-10.383-2.498c-2.07-0.586-3.272-2.739-2.686-4.81c0.586-2.07,2.738-3.274,4.809-2.688    c3,0.851,6.304,1.644,9.816,2.359c2.108,0.43,3.469,2.487,3.039,4.597C1556.494,634.938,1554.869,636.21,1553.057,636.21z     M1770.783,634.508c-1.994,0-3.693-1.521-3.876-3.545c-0.193-2.144,1.388-4.038,3.53-4.23c3.429-0.311,6.876-0.628,10.34-0.953    c2.15-0.201,4.042,1.374,4.243,3.516c0.2,2.143-1.373,4.043-3.515,4.242c-3.474,0.327-6.93,0.644-10.368,0.955    C1771.019,634.503,1770.9,634.508,1770.783,634.508z M1791.485,632.565c-1.982,0-3.677-1.505-3.873-3.518    c-0.208-2.143,1.358-4.047,3.5-4.256c3.429-0.334,6.874-0.676,10.334-1.023c2.146-0.218,4.052,1.345,4.267,3.485    c0.216,2.141-1.345,4.052-3.485,4.268c-3.469,0.349-6.922,0.691-10.36,1.026C1791.739,632.56,1791.611,632.565,1791.485,632.565z     M1812.176,630.481c-1.971,0-3.662-1.491-3.87-3.494c-0.223-2.141,1.332-4.056,3.473-4.278c3.43-0.355,6.872-0.719,10.328-1.088    c2.145-0.227,4.06,1.321,4.288,3.46c0.229,2.14-1.32,4.06-3.46,4.288c-3.464,0.37-6.914,0.734-10.352,1.091    C1812.446,630.475,1812.311,630.481,1812.176,630.481z M1533.131,630.413c-0.5,0-1.008-0.097-1.499-0.301    c-3.817-1.594-7.142-3.381-9.877-5.314c-1.757-1.241-2.175-3.673-0.934-5.431c1.243-1.756,3.674-2.174,5.431-0.934    c2.27,1.604,5.09,3.114,8.381,4.486c1.986,0.83,2.924,3.111,2.096,5.098C1536.104,629.513,1534.656,630.413,1533.131,630.413z     M1832.853,628.271c-1.962,0-3.649-1.478-3.868-3.472c-0.235-2.139,1.309-4.063,3.447-4.298c3.43-0.377,6.871-0.759,10.324-1.148    c2.135-0.245,4.066,1.299,4.307,3.437s-1.299,4.066-3.437,4.307c-3.459,0.389-6.906,0.772-10.344,1.149    C1833.138,628.264,1832.994,628.271,1832.853,628.271z M1853.516,625.947c-1.952,0-3.637-1.465-3.865-3.45    c-0.246-2.138,1.286-4.07,3.425-4.316c3.431-0.396,6.87-0.796,10.318-1.201c2.131-0.248,4.073,1.278,4.323,3.416    c0.251,2.138-1.277,4.073-3.415,4.323c-3.453,0.406-6.899,0.807-10.336,1.202C1853.814,625.94,1853.664,625.947,1853.516,625.947z     M1874.167,623.519c-1.944,0-3.626-1.453-3.863-3.432c-0.257-2.137,1.268-4.076,3.404-4.333c3.431-0.412,6.868-0.828,10.313-1.249    c2.139-0.261,4.079,1.259,4.34,3.393c0.261,2.136-1.259,4.08-3.395,4.341c-3.449,0.422-6.894,0.839-10.33,1.251    C1874.479,623.51,1874.322,623.519,1874.167,623.519z M1894.807,620.995c-1.938,0-3.616-1.442-3.862-3.415    c-0.266-2.135,1.25-4.082,3.386-4.348c3.43-0.428,6.867-0.859,10.308-1.294c2.136-0.27,4.084,1.242,4.354,3.376    c0.27,2.135-1.242,4.084-3.377,4.354c-3.445,0.436-6.887,0.868-10.323,1.296C1895.129,620.985,1894.967,620.995,1894.807,620.995z     M1915.404,618.387c-1.931,0-3.607-1.434-3.859-3.399c-0.275-2.134,1.232-4.087,3.367-4.36c3.425-0.442,6.854-0.887,10.285-1.335    c2.137-0.274,4.089,1.226,4.367,3.358c0.279,2.134-1.225,4.09-3.358,4.368c-3.436,0.448-6.869,0.893-10.301,1.336    C1915.736,618.377,1915.569,618.387,1915.404,618.387z M1516.974,618.023c-1.378,0-2.714-0.732-3.422-2.027    c-0.188-0.344-0.364-0.69-0.53-1.041c-1.521-3.225-2.696-6.442-3.489-9.566c-0.53-2.085,0.731-4.204,2.816-4.734    c2.084-0.531,4.206,0.731,4.735,2.816c0.671,2.639,1.675,5.384,2.984,8.157c0.101,0.212,0.207,0.422,0.32,0.63    c1.032,1.889,0.339,4.256-1.55,5.287C1518.246,617.87,1517.605,618.023,1516.974,618.023z M1935.999,615.696    c-1.924,0-3.598-1.426-3.857-3.386c-0.283-2.133,1.217-4.09,3.351-4.373c3.435-0.455,6.869-0.914,10.306-1.377    c2.142-0.286,4.094,1.211,4.38,3.343c0.288,2.133-1.209,4.094-3.341,4.381c-3.44,0.463-6.882,0.922-10.321,1.378    C1936.342,615.685,1936.17,615.696,1935.999,615.696z M1956.638,612.922c-1.919,0-3.589-1.417-3.855-3.37    c-0.291-2.133,1.202-4.097,3.334-4.388c3.443-0.469,6.886-0.941,10.329-1.416c2.142-0.293,4.099,1.197,4.392,3.328    c0.294,2.132-1.195,4.098-3.327,4.391c-3.446,0.477-6.895,0.949-10.342,1.418C1956.99,612.909,1956.813,612.922,1956.638,612.922z     M1977.27,610.075c-1.912,0-3.581-1.409-3.854-3.358c-0.298-2.131,1.188-4.1,3.319-4.396c3.432-0.479,6.861-0.961,10.29-1.445    c2.129-0.303,4.102,1.183,4.402,3.313c0.301,2.131-1.183,4.102-3.313,4.403c-3.432,0.484-6.866,0.966-10.301,1.446    C1977.631,610.063,1977.448,610.075,1977.27,610.075z M1997.857,607.166c-1.907,0-3.574-1.402-3.852-3.346    c-0.305-2.13,1.176-4.104,3.306-4.408c3.432-0.49,6.86-0.982,10.285-1.477c2.13-0.303,4.105,1.169,4.413,3.299    c0.307,2.13-1.171,4.106-3.301,4.412c-3.428,0.496-6.859,0.989-10.296,1.481C1998.227,607.153,1998.041,607.166,1997.857,607.166z     M2018.438,604.193c-1.903,0-3.568-1.395-3.851-3.334c-0.311-2.129,1.164-4.106,3.293-4.417c3.433-0.502,6.859-1.004,10.28-1.508    c2.123-0.317,4.108,1.157,4.423,3.286c0.313,2.129-1.158,4.109-3.287,4.422c-3.424,0.505-6.855,1.009-10.291,1.51    C2018.814,604.18,2018.624,604.193,2018.438,604.193z M2039.009,601.161c-1.898,0-3.562-1.389-3.85-3.322    c-0.316-2.129,1.152-4.11,3.28-4.428c3.433-0.511,6.859-1.023,10.277-1.536c2.129-0.323,4.111,1.146,4.432,3.273    c0.319,2.128-1.146,4.112-3.274,4.432c-3.421,0.514-6.851,1.026-10.287,1.539C2039.393,601.146,2039.199,601.161,2039.009,601.161    z M2059.57,598.072c-1.894,0-3.555-1.383-3.848-3.313c-0.322-2.127,1.142-4.113,3.269-4.437c3.433-0.521,6.858-1.042,10.273-1.563    c2.119-0.325,4.115,1.134,4.44,3.262c0.325,2.127-1.136,4.114-3.262,4.44c-3.419,0.522-6.848,1.045-10.285,1.566    C2059.961,598.058,2059.764,598.072,2059.57,598.072z M1512.153,598.037c-0.049,0-0.097,0-0.145-0.002    c-2.15-0.079-3.83-1.885-3.751-4.035c0.139-3.839,0.889-7.622,2.228-11.244c0.746-2.019,2.985-3.051,5.005-2.305    c2.018,0.746,3.051,2.986,2.305,5.004c-1.052,2.847-1.641,5.816-1.751,8.829C1515.967,596.386,1514.239,598.037,1512.153,598.037z     M2080.125,594.928c-1.89,0-3.549-1.376-3.846-3.301c-0.328-2.127,1.13-4.117,3.257-4.445c3.435-0.53,6.857-1.06,10.27-1.591    c2.135-0.327,4.118,1.126,4.448,3.251c0.33,2.127-1.126,4.119-3.252,4.449c-3.414,0.531-6.841,1.061-10.278,1.592    C2080.522,594.914,2080.322,594.928,2080.125,594.928z M2100.673,591.732c-1.886,0-3.543-1.371-3.845-3.292    c-0.333-2.126,1.12-4.119,3.246-4.453c3.436-0.538,6.857-1.076,10.267-1.615c2.128-0.335,4.121,1.115,4.456,3.24    c0.336,2.125-1.115,4.12-3.24,4.456c-3.412,0.539-6.838,1.078-10.276,1.617C2101.076,591.717,2100.873,591.732,2100.673,591.732z     M2121.213,588.487c-1.883,0-3.538-1.366-3.844-3.284c-0.338-2.125,1.11-4.122,3.235-4.459c3.437-0.547,6.858-1.094,10.263-1.641    c2.134-0.34,4.123,1.105,4.464,3.229c0.341,2.125-1.105,4.123-3.229,4.464c-3.408,0.547-6.832,1.094-10.271,1.643    C2121.622,588.472,2121.416,588.487,2121.213,588.487z M2141.744,585.194c-1.878,0-3.531-1.361-3.841-3.274    c-0.343-2.125,1.1-4.125,3.224-4.469c3.438-0.555,6.859-1.109,10.261-1.663c2.125-0.343,4.126,1.097,4.471,3.22    c0.347,2.123-1.095,4.125-3.22,4.471c-3.403,0.555-6.826,1.109-10.268,1.665C2142.16,585.178,2141.951,585.194,2141.744,585.194z     M2162.271,581.854c-1.875,0-3.527-1.357-3.84-3.267c-0.348-2.123,1.092-4.127,3.215-4.475c3.441-0.563,6.86-1.126,10.258-1.686    c2.12-0.352,4.128,1.088,4.477,3.21c0.351,2.123-1.086,4.128-3.21,4.477c-3.399,0.562-6.821,1.124-10.264,1.688    C2162.693,581.838,2162.481,581.854,2162.271,581.854z M1519.025,578.981c-0.793,0-1.594-0.241-2.285-0.742    c-1.741-1.264-2.129-3.7-0.866-5.441c2.052-2.829,4.548-5.607,7.421-8.254c1.582-1.458,4.047-1.358,5.505,0.225    c1.458,1.582,1.358,4.047-0.225,5.505c-2.492,2.299-4.644,4.686-6.394,7.099C1521.42,578.423,1520.231,578.981,1519.025,578.981z     M2182.791,578.47c-1.871,0-3.522-1.352-3.84-3.259c-0.352-2.123,1.083-4.129,3.206-4.481c3.443-0.571,6.861-1.142,10.253-1.708    c2.121-0.355,4.13,1.078,4.485,3.2c0.354,2.124-1.079,4.132-3.201,4.486c-3.395,0.566-6.815,1.137-10.261,1.708    C2183.217,578.452,2183.002,578.47,2182.791,578.47z M2203.303,575.041c-1.867,0-3.517-1.348-3.837-3.25    c-0.357-2.122,1.074-4.132,3.196-4.488c3.446-0.58,6.863-1.156,10.25-1.73c2.117-0.357,4.132,1.07,4.491,3.191    c0.359,2.121-1.069,4.133-3.19,4.492c-3.389,0.574-6.809,1.15-10.259,1.73C2203.735,575.023,2203.518,575.041,2203.303,575.041z     M2223.811,571.569c-1.864,0-3.513-1.343-3.836-3.243c-0.362-2.12,1.064-4.133,3.187-4.494c3.451-0.588,6.868-1.172,10.247-1.751    c2.117-0.36,4.135,1.061,4.498,3.182c0.363,2.122-1.061,4.135-3.182,4.498c-3.382,0.58-6.801,1.164-10.256,1.753    C2224.248,571.552,2224.027,571.569,2223.811,571.569z M2244.312,568.055c-1.86,0-3.508-1.338-3.834-3.234    c-0.366-2.12,1.056-4.136,3.177-4.502c3.457-0.596,6.873-1.188,10.246-1.772c2.12-0.366,4.137,1.053,4.504,3.173    c0.367,2.12-1.053,4.137-3.173,4.505c-3.374,0.585-6.793,1.176-10.253,1.773C2244.755,568.036,2244.531,568.055,2244.312,568.055z     M1534.057,564.857c-1.234,0-2.449-0.586-3.205-1.676c-1.226-1.769-0.786-4.196,0.982-5.422c2.791-1.935,5.873-3.843,9.161-5.671    c1.882-1.045,4.253-0.368,5.299,1.513c1.045,1.881,0.368,4.253-1.513,5.299c-3.065,1.703-5.928,3.473-8.508,5.262    C1535.597,564.632,1534.822,564.857,1534.057,564.857z M2264.808,564.499c-1.857,0-3.503-1.333-3.833-3.228    c-0.37-2.119,1.049-4.137,3.168-4.508c3.466-0.604,6.881-1.202,10.242-1.793c2.113-0.369,4.139,1.044,4.512,3.164    c0.371,2.119-1.045,4.139-3.164,4.511c-3.363,0.591-6.781,1.19-10.25,1.795C2265.256,564.479,2265.03,564.499,2264.808,564.499z     M2285.3,560.9c-1.854,0-3.498-1.328-3.832-3.219c-0.374-2.119,1.04-4.14,3.159-4.515c3.478-0.614,6.892-1.219,10.24-1.813    c2.123-0.377,4.143,1.035,4.518,3.154c0.377,2.119-1.035,4.141-3.154,4.518c-3.351,0.596-6.768,1.201-10.248,1.815    C2285.753,560.881,2285.525,560.9,2285.3,560.9z M2305.786,557.261c-1.852,0-3.494-1.325-3.831-3.211    c-0.379-2.118,1.031-4.142,3.15-4.521c3.495-0.625,6.909-1.237,10.239-1.836c2.113-0.383,4.142,1.027,4.523,3.146    c0.381,2.117-1.027,4.143-3.146,4.523c-3.331,0.6-6.748,1.213-10.247,1.838C2306.244,557.24,2306.014,557.261,2305.786,557.261z     M1552.168,554.69c-1.471,0-2.878-0.837-3.537-2.259c-0.905-1.953-0.056-4.269,1.897-5.174c3.073-1.424,6.36-2.831,9.767-4.182    c2.001-0.793,4.266,0.186,5.059,2.187c0.793,2-0.187,4.264-2.187,5.058c-3.271,1.296-6.422,2.646-9.364,4.008    C1553.273,554.573,1552.717,554.69,1552.168,554.69z M2326.271,553.576c-1.848,0-3.488-1.32-3.828-3.203    c-0.384-2.117,1.022-4.143,3.14-4.527c3.524-0.637,6.938-1.257,10.238-1.857c2.117-0.385,4.146,1.018,4.531,3.135    c0.386,2.117-1.019,4.146-3.135,4.531c-3.302,0.602-6.72,1.222-10.247,1.859C2326.736,553.557,2326.502,553.576,2326.271,553.576z     M2346.758,549.847c-1.845,0-3.482-1.315-3.827-3.194c-0.389-2.116,1.013-4.146,3.13-4.535c3.582-0.656,6.997-1.284,10.239-1.882    c2.117-0.39,4.147,1.009,4.538,3.124c0.391,2.116-1.008,4.148-3.124,4.538c-3.245,0.6-6.664,1.227-10.249,1.885    C2347.228,549.826,2346.99,549.847,2346.758,549.847z M1571.494,546.987c-1.616,0-3.126-1.013-3.684-2.626    c-0.701-2.035,0.379-4.252,2.413-4.954c3.206-1.107,6.584-2.201,10.04-3.253c2.059-0.627,4.234,0.535,4.861,2.593    c0.627,2.06-0.534,4.235-2.593,4.862c-3.364,1.023-6.65,2.088-9.767,3.163C1572.345,546.918,1571.916,546.987,1571.494,546.987z     M2367.251,546.065c-1.841,0-3.478-1.31-3.826-3.185c-0.393-2.115,1.003-4.15,3.119-4.542c3.738-0.695,7.161-1.333,10.249-1.912    c2.114-0.396,4.15,0.996,4.548,3.111c0.396,2.115-0.997,4.151-3.112,4.547c-3.093,0.58-6.519,1.22-10.262,1.915    C2367.727,546.045,2367.487,546.065,2367.251,546.065z M2387.778,542.219c-1.836,0-3.471-1.303-3.824-3.172    c-0.4-2.115,0.989-4.153,3.104-4.553c6.333-1.197,9.71-1.85,9.714-1.85c2.107-0.407,4.156,0.974,4.564,3.088    c0.407,2.112-0.975,4.155-3.088,4.564c0,0-3.387,0.653-9.742,1.855C2388.262,542.197,2388.018,542.219,2387.778,542.219z     M1591.403,540.906c-1.718,0-3.289-1.143-3.759-2.879c-0.563-2.077,0.666-4.217,2.743-4.779c3.282-0.888,6.709-1.767,10.185-2.609    c2.093-0.505,4.199,0.777,4.705,2.867c0.508,2.091-0.776,4.197-2.867,4.705c-3.41,0.827-6.77,1.689-9.986,2.56    C1592.083,540.862,1591.739,540.906,1591.403,540.906z M1611.635,535.986c-1.791,0-3.404-1.244-3.802-3.066    c-0.46-2.102,0.872-4.178,2.975-4.637c3.335-0.729,6.792-1.446,10.276-2.133c2.118-0.42,4.16,0.957,4.577,3.068    c0.416,2.111-0.958,4.159-3.069,4.576c-3.434,0.677-6.839,1.383-10.121,2.101C1612.19,535.956,1611.911,535.986,1611.635,535.986z     M1632.068,531.95c-1.852,0-3.493-1.326-3.83-3.213c-0.378-2.118,1.032-4.142,3.15-4.521c3.362-0.6,6.838-1.19,10.332-1.754    c2.123-0.343,4.124,1.101,4.467,3.225c0.343,2.125-1.101,4.125-3.225,4.467c-3.452,0.559-6.886,1.141-10.205,1.734    C1632.526,531.93,1632.296,531.95,1632.068,531.95z M1652.632,528.623c-1.903,0-3.567-1.394-3.851-3.334    c-0.311-2.129,1.164-4.108,3.293-4.417c3.415-0.499,6.904-0.983,10.373-1.44c2.137-0.28,4.09,1.22,4.371,3.354    c0.281,2.134-1.22,4.091-3.353,4.371c-3.433,0.453-6.887,0.933-10.267,1.425C1653.009,528.609,1652.818,528.623,1652.632,528.623z     M1673.291,525.898c-1.947,0-3.63-1.457-3.864-3.439c-0.253-2.137,1.273-4.074,3.411-4.327c3.424-0.405,6.926-0.798,10.406-1.165    c2.141-0.222,4.059,1.325,4.284,3.465c0.227,2.141-1.325,4.059-3.465,4.284c-3.448,0.364-6.917,0.753-10.311,1.154    C1673.598,525.889,1673.443,525.898,1673.291,525.898z M1694.026,523.706c-1.989,0-3.686-1.515-3.874-3.534    c-0.2-2.143,1.375-4.041,3.518-4.24c3.483-0.325,6.996-0.63,10.441-0.908c2.148-0.177,4.023,1.427,4.196,3.57    c0.173,2.146-1.426,4.024-3.571,4.197c-3.412,0.274-6.893,0.576-10.344,0.898C1694.271,523.701,1694.147,523.706,1694.026,523.706    z M1714.832,522.034c-2.033,0-3.746-1.578-3.884-3.636c-0.143-2.146,1.481-4.004,3.628-4.146    c6.615-0.442,10.417-0.603,10.575-0.609c2.123-0.102,3.965,1.579,4.055,3.73c0.09,2.148-1.579,3.965-3.729,4.055    c-0.037,0.002-3.875,0.164-10.381,0.599C1715.007,522.032,1714.92,522.034,1714.832,522.034z" />
		</g>
		<g>
			<polygon style="fill:#CA5F00;"
				points="2435.463,601.178 2583.052,517.535 2448.412,525.49 2458.804,548.232 2430.99,579.041       " />
			<polygon style="fill:#F1A34F;" points="2583.052,517.535 2428.391,545.879 2315.745,624.112   " />
			<polygon style="fill:#F1A34F;" points="2448.412,525.49 2583.052,517.535 2442.217,476.263   " />
		</g>
		<g>
			<polygon style="fill:#CA5F00;"
				points="1597.089,366.93 1456.643,408.138 1542.423,329.502 1550.271,349.596 1586.06,350.865       " />
			<polygon style="fill:#F1A34F;" points="1456.643,408.138 1567.076,329.341 1683.188,306.533   " />
			<polygon style="fill:#F1A34F;" points="1542.423,329.502 1456.643,408.138 1515.646,296.101   " />
		</g>
		<g>
			<path style="fill:#233862;"
				d="M616.221,459.609c-9.274-5.675-24.086,1.107-24.086,1.107c5.121-7.198,23.809-4.845,23.809-4.845    c-37.222-7.919-44.991,15.877-45.633,18.105c-26.998-24.365-70.224,27.572-70.224,27.572l62.028,82.222    c0,0,5.658-13.081,13.133-8.998c11.655,6.367,34.194-19.396,26.992-53.291c-0.779-3.664-1.716-7.006-2.754-10.081    c2.422,1.061,5.168,1.914,7.736,1.914c6.783,0,17.025-17.302,18.41-23.115C627.018,484.387,625.494,465.284,616.221,459.609z" />
			<path style="fill:#FFB27D;"
				d="M438.798,817.54c-39.286-14.475-77.126-81.704-77.126-81.704l12.391-8.674    c10.319,15.097,56.747,44.081,56.747,44.081c1.06-12.721,2.599-24.264,4.497-34.717c12.889-71.052,42.373-92.1,50.288-96.567    c1.277-0.727,1.997-1.01,1.997-1.01s-0.026,0.522-0.088,1.514c-0.113,2.139-0.365,6.446-0.777,12.352    C483.656,696.804,471.625,829.644,438.798,817.54z" />
			<path style="fill:#FFB27D;"
				d="M628.675,890.089c-19.409-43.527-28.693-55.835-29.019-69.53    c-0.257-10.83,5.083-22.515,15.456-51.168c2.442-6.752,4.128-13.695,5.166-20.713c8.204-55.238-23.739-114.951-43.592-119.019    c-5.524-1.46-14.888-21.411-14.772-53.56l-2.486,0.489l-41.805,8.277c0,0,0.952,13.156,0.98,25.551    c0.027,10.328-0.596,20.117-2.935,21.35c-3.011,0.272-4.786,0.451-4.786,0.451s-34.856,48.409-37.787,93.431    c-2.933,45.022,27.913,64.581-0.233,154.55C444.127,972.086,639.396,914.141,628.675,890.089z" />
			<path style="fill:#E8945B;"
				d="M517.623,584.865c0,0,0.952,13.156,0.98,25.551c23.393-0.66,35.758-22,40.824-33.828    L517.623,584.865z" />
			<path style="fill:#233862;"
				d="M563.745,572.037c0,0,12.26-19.37,15.202-35.934c2.1-11.824-3.922-55.656-47.969-49.344    c0,0-12.793,1.261-24.817,9.383c-9.563,6.459-23.365,20.402-7.933,58.651l4.008,12.92L563.745,572.037z" />
			<path style="fill:#FFB27D;"
				d="M509.81,596.602c0,0,55.349,0.913,55.387-33.564c0.037-34.476,7.207-57.577-28.13-59.618    c-35.336-2.04-42.217,11.107-45.028,22.612C489.228,537.536,495.415,595.476,509.81,596.602z" />
			<path style="fill:#163560;"
				d="M579.667,1307.764c-13.923,55.393-34.886,97.859-34.886,97.859l-18.252-1.266    c0,0,8.95-42.58,8.436-100.112c-0.361-40.222-5.336-87.758-21.228-133.145c-54.612-155.971-45.786-269.484-45.786-269.484    l102.7,12.012l4.784,0.562c0.427,47.165,1.645,111.203,2.71,161.278c0.942,45.034,1.77,78.77,1.77,78.77    C599.659,1196.762,592.488,1256.786,579.667,1307.764z" />
			<path style="fill:#1C468A;"
				d="M638.588,1298.92c-5.906,63.02-31.906,103.771-31.906,103.771l-8.718,6.341    c0,0-8.253-44.4-14.092-97.225c-5.565-50.208-13.192-103.337-21.819-119.554c-34.249-64.313-44.559-307.101-44.559-307.101    l104.126-5.164c10.472,17.604,15.038,46.481,16.122,79.312c2.739,82.86-16.74,190.905-19.65,206.532c0,0.01,0,0.019-0.009,0.037    c-0.229,1.208,0.123,2.397,0.685,3.491C639.482,1210.372,642.479,1257.29,638.588,1298.92z" />
			<path style="fill:#233862;"
				d="M550.27,549.003c23.256,5.981,33.345-0.251,33.345-0.251s-17.84-14.171-21.542-38.908    c0,0-10.215-32.244-49.763-7.975c-3.625-3.109-10.085-5.358-18.625,4.993c-12.831,15.552-1.414,43.044-1.414,43.044    c5.268,0.615,6.508-17.458,9.268-26.237c2.03-6.46,8.69-13.052,12.069-16.086c1.112,4.086,12.267,42.723,40.046,55.563    c0,0-12.798-11.355-22.208-27.12C536.833,542.143,543.174,547.178,550.27,549.003z" />
			<path style="fill:#FFB27D;"
				d="M709.791,948.781c-4.216-2.662-8.295-10.832-9.75-13.974    c-12.872-32.044-27.7-94.178-32.606-105.618c-1.789-4.165-5.212-23.824-9.702-49.152c-8.056-45.443-19.517-109.148-30.996-134.391    c-1.38-3.024-5.326-5.602-10.5-7.761c-15.626-6.534-42.344-9.264-42.344-9.264l13.953,60.423l4.09,17.719    c0,0,12.421,43.771,22.046,79.541c4.652,17.271,8.637,32.689,10.263,40.393c4.984,23.663,59.796,114.608,59.796,114.608    l0.017-0.005l-0.013,0.006c0,0,1.661,1.108,3.599,6.645c1.938,5.536,17.44,34.882,24.085,34.882c6.644,0,8.028-9.967,9.413-16.334    C722.525,960.132,715.051,952.104,709.791,948.781z" />
			<path style="fill:#FFB27D;"
				d="M374.062,727.162c0.006-1.709,1.433-26.431-2.968-31.625c-4.399-5.193-13.386-12.579-16.212-12.352    c-2.827,0.227-13.879,14.913-10.557,26.168c3.323,11.254,17.346,26.482,17.346,26.482L374.062,727.162z" />
			<g>
				<path style="fill:#F1A34F;"
					d="M394.244,696.92l-25.62,7.679c-0.851,0.255-1.746-0.227-2.001-1.077l-14.642-48.853     c-0.255-0.85,0.228-1.745,1.078-2l25.619-7.679c0.851-0.255,1.746,0.227,2.001,1.078l14.642,48.852     C395.576,695.769,395.094,696.666,394.244,696.92z" />
				<path style="fill:#D86713;"
					d="M387.587,698.916l-23.239,6.965c-1.508,0.452-3.096-0.404-3.548-1.912l-13.928-46.471     c-0.452-1.508,0.403-3.097,1.911-3.548l23.239-6.965c1.507-0.452,3.096,0.403,3.548,1.911l13.928,46.471     C389.95,696.875,389.094,698.464,387.587,698.916z" />
			</g>
			<path style="fill:#FFB27D;"
				d="M638.588,1298.92c-5.906,63.02-31.906,103.771-31.906,103.771l-8.877,8.085    c0,0-8.094-46.145-13.933-98.969C590.025,1312.254,617.15,1313.243,638.588,1298.92z" />
			<path style="fill:#F1A34F;"
				d="M614.201,788.197c6.164,1.655,26.023,5.383,48.754-7.143    c-9.377-45.768-22.711-109.928-36.065-135.352c-0.646-1.227-1.778-2.377-3.291-3.461c0.086-0.104,0.134-0.162,0.134-0.162    c-12.517-9.102-38.102-11.898-38.102-11.898s-7.885,34.982-12.868,39.547c-4.984,4.565-77.239,12.04-78.903,3.737    c-1.588-7.932,18.787-38.783,20.308-41.503c0.077-0.124-3.284,0.254-3.284,0.254c-8.236,1.085-14.047,1.912-18.24,2.625    c-8.208,1.408-13.224,4.917-13.695,5.462c-9.726,7.366-32.586,29.987-41.527,84.501c0,0,11.305,15.497,27.23,20.068    c0.418,0.12,0.842,0.224,1.266,0.328c-2.768,46.198-19.773,123.078-13.648,167.552c5.887,42.762,95.843,31.824,113.676,27.858    c12.222-2.711,21.676-15.617,28.429-38.614c2.234,16.073,7.247,34.915,18.489,36.084c18.394,1.902,26.003-1.275,28.219-8.246    c0.637-2.007,0.828-4.813,0.647-8.321C640.528,897.498,622.258,840.908,614.201,788.197z" />
			<path style="fill:#D9935C;"
				d="M579.667,1307.764c-13.923,55.393-34.886,97.859-34.886,97.859l-18.252-1.266    c0,0,8.95-42.58,8.436-100.112C541.158,1307.365,553.94,1310.532,579.667,1307.764z" />
			<g>
				<path style="fill:#233862;"
					d="M555.292,1420.928h-11.653c-3.902-0.614-6.784-1.744-10.787-2.267     c-6.08-0.798-8.878,1.693-9.435,2.267c-0.075,0.074-0.108,0.117-0.108,0.117H473.81c-1.246-1.777-0.051-5.897,1.121-8.929     c0.789-2.06,2.508-3.621,4.634-4.235c5.249-1.52,15.597-2.874,25.073-11.453c5.332-4.816,25.746-17.715,25.746-17.715     l0.107-0.024c0.448,0.008,2.583,0.664,11.869,8.504c4.8,4.044,12.981-5.714,12.981-5.714s1.536,1.271,2.683,3.638     c0.922,1.868,1.595,4.435,1.064,7.6c-0.739,4.459,1.643,12.747,3.546,18.354c1.153,3.397,2.126,5.806,2.126,5.806     S565.315,1419.674,555.292,1420.928z" />
				<path style="fill:#466AA5;"
					d="M558.024,1385.116c-2.782,1.96-8.654,5.822-12.55,6.328c-5.257,0.69-15.09-12.731-15.09-12.731     l0.107-0.024c0.448,0.008,2.583,0.664,11.869,8.504c4.8,4.044,12.981-5.714,12.981-5.714S556.878,1382.749,558.024,1385.116z" />
				<path style="fill:#466AA5;"
					d="M555.292,1420.928h-11.653c-3.902-0.614-6.784-1.744-10.787-2.267     c-6.08-0.798-8.878,1.693-9.435,2.267c-0.075,0.074-0.108,0.117-0.108,0.117H473.81c-1.246-1.777-0.051-5.897,1.121-8.929     c1.503-1.337,1.926,5.805,2.758,6.943c0.829,1.138,40.379,0.415,42.662-1.246c2.284-1.661,9.136-4.568,18.688-2.284     c8.313,1.985,20.563-3.105,23.595-4.46c1.153,3.397,2.126,5.806,2.126,5.806S565.315,1419.674,555.292,1420.928z" />
			</g>
			<g>
				<path style="fill:#233862;"
					d="M617.473,1420.928H605.82c-3.903-0.614-6.785-1.744-10.788-2.267     c-6.079-0.798-8.878,1.693-9.435,2.267c-0.074,0.074-0.107,0.117-0.107,0.117H535.99c-1.245-1.777-0.05-5.897,1.122-8.929     c0.789-2.06,2.508-3.621,4.635-4.235c5.248-1.52,15.597-2.874,25.072-11.453c5.332-4.816,25.746-17.715,25.746-17.715     l0.108-0.024c0.448,0.008,2.582,0.664,11.867,8.504c4.801,4.044,12.98-5.714,12.98-5.714s1.537,1.271,2.684,3.638     c0.922,1.868,1.595,4.435,1.063,7.6c-0.738,4.459,1.645,12.747,3.547,18.354c1.154,3.397,2.126,5.806,2.126,5.806     S627.497,1419.674,617.473,1420.928z" />
				<path style="fill:#466AA5;"
					d="M620.205,1385.116c-2.782,1.96-8.654,5.822-12.549,6.328c-5.258,0.69-15.091-12.731-15.091-12.731     l0.108-0.024c0.448,0.008,2.582,0.664,11.867,8.504c4.801,4.044,12.98-5.714,12.98-5.714S619.059,1382.749,620.205,1385.116z" />
				<path style="fill:#466AA5;"
					d="M617.473,1420.928H605.82c-3.903-0.614-6.785-1.744-10.788-2.267     c-6.079-0.798-8.878,1.693-9.435,2.267c-0.074,0.074-0.107,0.117-0.107,0.117H535.99c-1.245-1.777-0.05-5.897,1.122-8.929     c1.503-1.337,1.927,5.805,2.757,6.943c0.831,1.138,40.379,0.415,42.664-1.246c2.284-1.661,9.136-4.568,18.687-2.284     c8.313,1.985,20.563-3.105,23.595-4.46c1.154,3.397,2.126,5.806,2.126,5.806S627.497,1419.674,617.473,1420.928z" />
			</g>
			<path style="opacity:0.4;fill:#D86713;"
				d="M641.727,921.514c-12.355-4.129-28.209-15.104-47.25-39.709    c-50.408-65.15-4.28-141.714,1.901-143.141c6.183-1.427,17.823,49.533,17.823,49.533    C622.258,840.908,640.528,897.498,641.727,921.514z" />
			<path style="fill:#FFB27D;"
				d="M352.67,684.857c0,0,8.087-7.336,14.689-0.398c6.604,6.937-2.5,19.332-9.16,22.285    c-6.662,2.953-8.874,4.625-8.874,4.625L352.67,684.857z" />
			<path style="fill:#FFFFFF;"
				d="M520.623,576.136c0,0-0.956,4.063-11.063,3.437c0,0-8.486-0.524-8.227-4.989    C501.333,574.583,509.561,571.405,520.623,576.136z" />
		</g>
		<path style="fill:#ACD29A;"
			d="M365.327,1415.26c2.232,0.803,5.281,1.086,8.817,1.038c-15.969-9.367-68.023-25.682-43.269-29.014   c22.712-3.064,39.765,20.039,45.438,28.936c2.578-0.11,5.359-0.378,8.252-0.724c-22.586-25.682-90.452-105.996-53.737-103.952   c36.228,2.012,54.099,77.485,59.159,103.229c2.609-0.377,5.266-0.786,7.874-1.194c-1.21-8.221-1.241-22.099,11.034-26.374   c16.802-5.847,12.605,16.896,6.569,24c4.322-0.33,7.686-0.188,9.352,0.817c4.543,2.782,6.413,6.569,7.167,9.022H331.205   C337.649,1418.278,355.033,1411.599,365.327,1415.26z" />
		<path style="fill:#ACD29A;"
			d="M2916.909,1414.366c-5.517,0.134-10.962-0.432-16.161-1.274h-0.003   c6.13-4.514,19.069-13.886,29.601-20.467c14.334-8.959,22.473-24.038,2.239-26.604c-17.238-2.186-30.788,35.426-34.423,46.609   c0-0.001-0.001-0.001-0.001-0.001c-2.364-0.432-4.665-0.904-6.895-1.397c2.767-7.958,8.841-24.813,14.591-36.565   c7.765-15.866,35.238-42.664,7.765-45.72c-24.425-2.717-30.911,65.058-32.05,80.139l-0.005-0.001   c-4.911-1.037-9.195-1.735-12.596-1.489c-8.271,0.617-16.15,10.109-9.977,13.449h82.284   C2939.245,1419.082,2932.455,1413.996,2916.909,1414.366z" />
		<path style="fill:#2E3552;"
			d="M3011.937,1426.538H179.271c-1.511,0-2.747-1.235-2.747-2.747l0,0c0-1.511,1.236-2.746,2.747-2.746   h2832.665c1.511,0,2.747,1.235,2.747,2.746l0,0C3014.684,1425.303,3013.447,1426.538,3011.937,1426.538z" />
	</g>
</svg>